<?xml version="1.0" standalone="no"?>
<!DOCTYPE svg >
<svg version="1.0" xmlns="http://www.w3.org/2000/svg"
 width="500.000000pt" height="500.000000pt" viewBox="0 0 500.000000 500.000000"
 preserveAspectRatio="xMidYMid meet">

<g transform="translate(0.000000,500.000000) scale(0.100000,-0.100000)"
fill="#000000" stroke="none">
<path d="M2495 2527 c4 -210 11 -386 16 -391 5 -6 10 20 11 65 2 66 2 68 5 19
4 -51 21 -94 24 -59 1 7 2 19 4 24 1 6 3 30 4 55 1 30 4 40 10 31 11 -17 31
-6 31 18 0 10 9 30 21 45 19 24 19 26 2 26 -17 1 -17 1 -1 14 10 7 19 24 21
36 2 13 10 26 18 28 8 3 24 14 36 26 11 12 29 27 38 35 11 9 15 21 10 38 -5
21 -3 24 15 18 17 -5 20 -2 20 25 0 26 11 43 61 91 50 47 60 61 50 72 -9 12
-7 16 10 20 13 4 19 11 16 19 -3 9 3 14 14 15 10 1 29 11 41 23 19 18 20 22 8
30 -11 7 -6 10 20 11 l35 2 -40 7 -40 7 45 3 c26 1 36 5 25 8 l-20 5 20 8 c11
4 -105 8 -259 8 l-279 0 8 -382z"/>
<path d="M2540 2120 c0 -21 -20 -28 -21 -7 0 6 -4 3 -9 -8 -5 -11 -8 -76 -7
-145 l1 -125 3 110 c3 72 8 112 16 117 9 6 9 8 0 8 -20 0 -15 17 7 23 17 4 31
47 15 47 -3 0 -5 -9 -5 -20z"/>
</g>
</svg>
